<?xml version="1.0" encoding="UTF-8" ?>
<!DOCTYPE svg PUBLIC "-//W3C//DTD SVG 1.1//EN" "http://www.w3.org/Graphics/SVG/1.1/DTD/svg11.dtd">
<svg width="1322pt" height="299pt" viewBox="0 0 1322 299" version="1.1" xmlns="http://www.w3.org/2000/svg">
<g id="#fafafaff">
<path fill="#fafafa" opacity="1.00" d=" M 222.99 42.98 C 233.20 26.91 250.76 15.13 270.04 14.10 C 286.57 12.83 303.02 19.77 314.70 31.29 C 329.67 47.46 336.50 69.50 339.12 90.98 C 341.24 105.17 341.02 119.55 341.09 133.86 C 354.37 140.69 368.07 148.90 375.87 162.08 C 382.04 171.93 377.30 184.02 372.37 193.35 C 362.58 210.20 349.16 224.83 333.95 236.94 C 302.61 261.97 263.74 276.88 223.96 280.96 C 199.64 284.07 174.82 283.49 150.84 278.23 C 126.21 272.83 101.49 265.55 79.91 252.12 C 66.12 243.64 52.35 234.67 41.29 222.71 C 35.82 216.46 29.47 208.60 31.61 199.66 C 34.65 188.91 42.77 180.62 47.85 170.88 C 49.35 167.90 46.87 164.79 46.04 162.00 C 39.25 147.55 35.64 131.79 33.99 115.96 C 31.26 93.46 35.77 69.53 48.59 50.61 C 57.82 36.91 73.16 26.56 90.02 26.12 C 101.87 24.59 113.91 27.81 123.95 34.10 C 135.15 40.31 142.60 51.26 148.90 62.04 C 156.07 74.72 159.68 88.96 162.89 103.05 C 177.12 100.42 191.55 99.05 206.01 98.82 C 207.82 79.40 211.31 59.15 222.99 42.98 M 225.07 51.07 C 213.94 71.71 210.37 95.76 211.22 118.97 C 211.54 133.81 215.91 148.16 216.69 162.95 C 214.54 160.73 212.42 158.28 212.12 155.00 C 207.26 138.45 205.51 121.09 205.85 103.87 C 192.29 104.37 178.75 105.57 165.31 107.47 C 165.59 115.49 165.77 123.51 165.27 131.53 C 163.77 126.57 162.39 121.57 161.47 116.47 C 157.46 93.96 149.99 71.44 135.80 53.21 C 129.15 44.17 119.26 38.01 108.93 34.01 C 92.85 28.99 73.73 32.49 61.70 44.69 C 47.22 58.63 40.82 78.94 39.27 98.53 C 37.54 123.88 44.54 148.77 54.07 172.00 C 47.65 181.02 40.45 189.96 38.11 201.06 C 37.01 209.17 42.90 215.57 48.14 220.85 C 66.85 240.19 90.86 253.49 115.69 263.29 C 140.11 271.97 165.96 277.76 192.00 277.10 C 227.43 277.21 263.36 270.32 295.03 254.06 C 320.94 241.31 344.23 222.44 360.43 198.39 C 366.14 189.37 372.26 179.43 370.82 168.22 C 365.80 154.55 351.97 147.42 340.40 139.98 C 339.79 145.65 339.32 151.52 336.38 156.55 C 335.56 126.02 337.33 94.37 326.87 65.11 C 322.46 53.54 316.28 42.35 307.26 33.73 C 297.92 25.48 285.65 20.10 273.00 21.01 C 252.63 19.73 234.37 33.85 225.07 51.07 Z" />
<path fill="#fafafa" opacity="1.00" d=" M 256.42 45.47 C 267.97 43.14 279.87 47.84 288.25 55.74 C 299.85 66.69 306.82 81.71 311.04 96.89 C 315.33 114.98 317.55 133.96 314.45 152.43 C 312.14 167.99 306.38 183.69 294.83 194.82 C 286.63 203.72 273.12 207.47 261.64 203.39 C 249.52 198.99 240.24 189.00 234.13 177.91 C 220.20 153.06 216.32 123.27 220.35 95.31 C 224.67 74.99 234.96 52.10 256.42 45.47 M 247.66 55.65 C 236.08 65.38 230.76 80.27 227.52 94.59 C 223.56 111.27 225.81 128.50 228.13 145.23 C 254.76 131.23 281.24 116.69 305.49 98.80 C 300.55 81.44 291.87 63.76 275.88 54.16 C 267.28 48.53 255.55 49.03 247.66 55.65 M 302.29 108.09 C 306.59 122.47 306.76 137.75 305.48 152.60 C 304.53 159.85 303.14 167.50 298.24 173.25 C 295.52 175.77 290.79 175.34 288.21 172.79 C 284.37 169.22 283.54 163.67 281.97 158.95 C 278.63 147.60 279.05 135.64 278.80 123.95 C 263.16 134.10 246.16 141.84 229.54 150.19 C 234.46 166.63 241.84 183.43 256.27 193.70 C 262.64 197.88 270.94 201.68 278.57 198.52 C 285.27 196.41 290.92 191.66 294.85 185.90 C 303.19 174.96 306.38 161.15 308.72 147.87 C 309.63 133.56 309.13 119.14 306.97 104.96 C 305.41 106.01 303.85 107.05 302.29 108.09 M 289.88 127.98 C 290.13 137.61 289.29 148.62 295.45 156.79 C 299.97 142.90 298.41 127.82 293.53 114.26 C 291.01 118.36 289.29 123.06 289.88 127.98 Z" />
<path fill="#fafafa" opacity="1.00" d=" M 77.47 50.65 C 89.26 47.67 101.49 52.92 109.81 61.19 C 127.43 77.53 135.24 101.60 138.18 124.86 C 140.93 145.00 140.72 166.63 131.05 185.03 C 126.04 194.68 116.36 203.16 104.96 202.92 C 94.35 203.90 83.93 198.86 76.71 191.31 C 66.96 182.65 60.65 170.95 56.06 158.92 C 49.47 140.81 46.68 121.36 47.21 102.13 C 48.42 88.16 51.17 73.43 60.39 62.35 C 64.95 57.17 70.51 52.13 77.47 50.65 M 66.36 63.33 C 55.83 76.81 52.79 94.38 53.80 111.08 C 79.49 123.76 106.34 134.15 133.76 142.44 C 131.53 120.24 128.31 97.19 115.89 78.07 C 109.58 67.87 100.48 58.28 88.38 55.53 C 80.37 54.43 71.89 57.46 66.36 63.33 M 53.83 117.82 C 56.18 145.07 64.41 174.57 87.04 191.97 C 96.96 200.06 113.71 199.00 121.66 188.68 C 131.20 177.39 133.61 161.79 132.84 147.46 C 131.59 147.26 130.35 147.07 129.10 146.88 C 129.53 156.31 130.54 166.23 127.37 175.34 C 125.80 178.13 124.71 182.50 120.93 182.85 C 117.09 182.95 113.82 180.17 112.00 177.00 C 104.04 165.72 103.59 151.37 101.82 138.19 C 85.66 131.77 69.58 125.19 53.83 117.82 M 113.89 141.90 C 115.29 151.84 116.33 162.13 121.48 170.98 C 123.10 162.16 122.40 153.12 120.98 144.32 C 118.60 143.54 116.25 142.72 113.89 141.90 Z" />
<path fill="#fafafa" opacity="1.00" d=" M 893.09 90.16 C 901.05 83.88 911.83 84.65 921.18 86.80 C 920.86 91.03 920.49 95.25 920.09 99.47 C 914.62 98.70 908.15 96.31 903.56 100.54 C 897.09 105.99 898.57 115.49 897.75 122.95 C 903.48 122.98 909.24 123.01 915.00 123.04 C 914.96 127.34 914.98 131.65 915.00 135.96 C 909.31 135.98 903.65 136.01 898.00 136.04 C 898.01 158.02 897.98 180.01 898.00 201.99 C 892.31 202.00 886.65 202.00 881.00 202.00 C 881.01 180.02 880.98 158.05 880.99 136.08 C 878.24 136.04 872.75 135.96 870.00 135.92 C 869.97 131.63 870.02 127.36 870.01 123.08 C 872.66 123.03 877.98 122.92 880.64 122.87 C 881.56 111.39 881.85 96.95 893.09 90.16 Z" />
<path fill="#fafafa" opacity="1.00" d=" M 1214.01 86.01 C 1219.64 85.99 1225.31 85.99 1231.00 86.00 C 1231.00 124.67 1231.01 163.33 1230.99 201.99 C 1225.30 202.00 1219.65 202.00 1214.00 202.00 C 1213.99 163.33 1213.99 124.67 1214.01 86.01 Z" />
<path fill="#fafafa" opacity="1.00" d=" M 1252.01 86.01 C 1257.64 85.99 1263.31 85.99 1269.00 86.00 C 1269.00 124.67 1269.01 163.33 1268.99 201.99 C 1263.30 202.00 1257.65 202.00 1252.00 202.00 C 1251.99 163.33 1251.99 124.67 1252.01 86.01 Z" />
<path fill="#fafafa" opacity="1.00" d=" M 431.01 92.02 C 450.00 91.98 469.00 91.97 488.00 92.01 C 487.98 96.67 488.01 101.33 487.99 105.99 C 474.65 105.99 461.32 106.01 447.98 106.02 C 448.01 117.34 448.02 128.66 447.99 139.98 C 460.65 139.99 473.33 140.01 486.00 140.01 C 485.98 144.66 486.01 149.33 485.99 153.99 C 473.32 153.99 460.66 154.01 448.00 154.01 C 448.04 170.01 447.96 186.00 448.00 202.00 C 442.32 202.00 436.66 202.00 431.00 202.00 C 430.99 165.34 430.99 128.68 431.01 92.02 Z" />
<path fill="#fafafa" opacity="1.00" d=" M 1017.32 92.34 C 1024.24 92.13 1031.17 92.00 1038.12 91.89 C 1044.58 112.98 1052.13 133.74 1057.83 155.07 C 1059.88 162.54 1061.54 170.15 1063.96 177.52 C 1071.32 148.62 1081.07 120.42 1090.39 92.11 C 1097.26 92.05 1104.15 92.02 1111.07 92.00 C 1113.73 128.64 1115.32 165.34 1118.00 201.98 C 1112.67 201.98 1107.35 201.99 1102.05 201.98 C 1100.40 171.23 1098.63 140.47 1097.60 109.69 C 1089.68 140.60 1078.78 170.63 1068.85 200.93 C 1064.59 200.92 1060.42 200.94 1056.22 200.96 C 1047.87 170.47 1036.75 140.72 1030.35 109.70 C 1028.97 140.47 1027.27 171.23 1025.87 202.00 C 1020.56 202.00 1015.25 201.99 1009.97 201.98 C 1012.56 165.44 1015.01 128.89 1017.32 92.34 Z" />
<path fill="#fafafa" opacity="1.00" d=" M 930.20 108.49 C 935.83 106.84 941.41 104.98 946.99 103.11 C 946.99 109.72 947.01 116.33 947.04 122.94 C 953.34 122.97 959.68 123.00 966.00 123.03 C 965.95 127.34 965.98 131.65 966.00 135.96 C 959.65 135.98 953.35 136.00 947.03 136.03 C 947.10 150.97 946.42 165.93 947.35 180.86 C 947.75 184.14 949.12 188.21 952.67 189.19 C 956.40 189.72 960.25 189.55 964.07 189.69 C 964.46 193.93 964.82 198.17 965.18 202.41 C 957.27 203.43 948.80 205.46 941.28 201.71 C 934.51 198.42 931.07 190.81 930.52 183.61 C 929.37 167.79 930.12 151.91 930.00 136.07 C 927.25 136.03 921.75 135.95 919.00 135.92 C 918.97 131.63 919.01 127.35 919.00 123.07 C 921.73 123.03 927.18 122.95 929.90 122.90 C 929.98 119.30 930.13 112.10 930.20 108.49 Z" />
<path fill="#fafafa" opacity="1.00" d=" M 533.03 124.03 C 536.94 121.45 541.79 121.38 546.24 120.55 C 546.57 125.77 546.84 131.00 547.17 136.23 C 537.49 135.83 526.13 141.40 525.03 151.96 C 522.81 168.53 524.37 185.33 524.01 201.99 C 518.33 202.00 512.66 202.00 507.00 202.00 C 506.99 175.66 506.99 149.33 507.00 123.00 C 511.56 122.99 516.16 123.00 520.74 123.02 C 521.00 127.71 521.40 132.39 521.89 137.07 C 525.00 132.24 527.72 126.84 533.03 124.03 Z" />
<path fill="#fafafa" opacity="1.00" d=" M 586.40 121.45 C 601.07 118.47 616.66 126.52 623.04 139.96 C 630.66 156.71 629.63 178.13 617.61 192.62 C 605.53 206.37 581.88 208.22 568.28 195.70 C 562.55 190.99 558.66 184.21 557.08 177.00 C 553.85 165.16 554.45 152.04 559.95 140.96 C 564.51 130.41 574.94 122.61 586.40 121.45 M 587.42 134.44 C 582.85 134.90 579.56 138.59 577.15 142.17 C 571.62 150.40 571.38 160.90 572.56 170.41 C 573.18 177.03 576.54 183.14 581.29 187.70 C 587.79 192.83 597.38 191.87 603.16 186.15 C 611.95 175.74 612.73 160.68 608.88 148.13 C 606.13 139.23 597.22 131.35 587.42 134.44 Z" />
<path fill="#fafafa" opacity="1.00" d=" M 644.94 139.95 C 650.54 127.12 665.08 118.38 679.16 121.71 C 685.91 122.52 690.75 127.86 694.97 132.75 C 695.19 129.50 695.57 126.28 695.94 123.05 C 699.60 123.02 706.91 122.97 710.57 122.94 C 709.13 148.77 710.87 174.66 709.58 200.49 C 708.96 213.76 702.35 228.39 689.00 233.03 C 675.35 237.96 659.90 236.44 646.68 230.82 C 647.65 226.51 648.80 222.24 650.01 217.98 C 659.81 221.75 671.15 225.38 681.31 221.27 C 693.08 216.18 693.45 201.78 693.34 190.97 C 688.76 195.02 684.43 200.16 678.05 201.09 C 663.81 205.22 648.65 195.60 643.75 182.17 C 639.01 168.65 638.44 153.00 644.94 139.95 M 672.43 134.44 C 665.20 135.41 661.07 142.65 658.84 148.88 C 655.34 159.85 656.08 172.71 662.50 182.46 C 668.05 190.23 680.76 191.51 687.31 184.31 C 695.76 176.13 692.82 163.43 692.90 153.01 C 693.68 142.39 683.46 131.01 672.43 134.44 Z" />
<path fill="#fafafa" opacity="1.00" d=" M 746.42 122.49 C 756.00 119.56 765.92 121.71 775.03 125.09 C 773.90 129.20 772.76 133.31 771.82 137.46 C 764.30 134.50 754.82 130.17 747.57 135.54 C 743.06 138.46 742.52 145.88 746.74 149.24 C 754.68 154.88 764.86 157.02 771.74 164.23 C 782.16 174.28 778.93 194.59 765.29 200.24 C 752.79 206.03 738.43 203.85 725.99 199.05 C 727.23 194.92 728.35 190.75 729.27 186.54 C 737.97 190.54 748.44 194.50 757.65 189.64 C 763.90 186.11 763.85 174.98 756.89 172.19 C 746.99 166.36 733.20 163.03 729.18 150.83 C 724.92 138.48 734.04 124.94 746.42 122.49 Z" />
<path fill="#fafafa" opacity="1.00" d=" M 820.40 121.45 C 835.07 118.47 850.66 126.52 857.04 139.96 C 864.66 156.71 863.63 178.13 851.61 192.62 C 839.53 206.37 815.88 208.22 802.28 195.70 C 796.55 190.99 792.66 184.21 791.08 177.00 C 787.85 165.16 788.45 152.04 793.95 140.96 C 798.51 130.41 808.93 122.61 820.40 121.45 M 821.42 134.44 C 816.85 134.90 813.56 138.59 811.15 142.17 C 805.62 150.40 805.37 160.90 806.56 170.41 C 807.18 177.03 810.53 183.14 815.29 187.70 C 821.79 192.83 831.38 191.87 837.16 186.15 C 845.95 175.74 846.72 160.68 842.88 148.13 C 840.13 139.23 831.22 131.35 821.42 134.44 Z" />
<path fill="#fafafa" opacity="1.00" d=" M 1137.77 127.16 C 1151.59 121.58 1168.45 117.56 1181.86 126.10 C 1188.58 130.40 1191.66 138.77 1192.42 146.41 C 1193.96 164.90 1192.06 183.52 1193.88 202.00 C 1190.25 201.98 1183.01 201.93 1179.39 201.90 C 1178.62 199.24 1178.64 196.72 1178.05 194.10 C 1169.15 202.39 1155.29 207.38 1143.95 201.08 C 1128.73 193.53 1128.20 169.27 1142.00 160.01 C 1152.05 152.41 1165.35 151.80 1177.41 150.55 C 1175.96 145.45 1175.75 139.24 1171.25 135.75 C 1161.63 130.27 1150.27 133.84 1141.12 138.56 C 1140.04 134.75 1138.89 130.96 1137.77 127.16 M 1155.02 167.05 C 1147.51 171.28 1147.04 182.57 1152.10 188.90 C 1157.95 194.12 1166.86 191.93 1172.31 187.31 C 1178.75 180.29 1176.67 170.28 1177.23 161.68 C 1169.71 162.68 1161.40 162.28 1155.02 167.05 Z" />
<path fill="#fafafa" opacity="1.00" d=" M 258.54 222.35 C 252.58 230.70 243.02 234.89 233.95 238.89 C 214.60 247.17 193.21 249.87 172.31 248.75 C 157.42 246.96 141.25 243.37 130.61 232.01 C 140.40 234.78 149.50 239.70 159.60 241.43 C 184.83 246.91 211.41 243.06 234.99 233.02 C 242.94 229.67 250.40 225.26 258.54 222.35 Z" />
</g>
</svg>
